<?xml version="1.0" encoding="UTF-8" standalone="no"?>
<svg
   xmlns:dc="http://purl.org/dc/elements/1.1/"
   xmlns:cc="http://creativecommons.org/ns#"
   xmlns:rdf="http://www.w3.org/1999/02/22-rdf-syntax-ns#"
   xmlns:svg="http://www.w3.org/2000/svg"
   xmlns="http://www.w3.org/2000/svg"
   viewBox="0 0 5600 2800"
   height="2800"
   width="5600"
   xml:space="preserve"
   id="svg2"
   version="1.1"><metadata
     id="metadata8"><rdf:RDF><cc:Work
         rdf:about=""><dc:format>image/svg+xml</dc:format><dc:type
           rdf:resource="http://purl.org/dc/dcmitype/StillImage" /></cc:Work></rdf:RDF></metadata><defs
     id="defs6" /><g
     transform="matrix(1.3333333,0,0,-1.3333333,0,2800)"
     id="g10"><g
       transform="scale(0.1)"
       id="g12"><g
         transform="scale(2.57669)"
         id="g14"><path
           id="path16"
           style="fill:#ffffff;fill-opacity:1;fill-rule:nonzero;stroke:none"
           d="M 16300,0 H 0 V 8150 H 16300 V 0" /></g><g
         transform="scale(1.19871)"
         id="g18"><path
           id="path20"
           style="fill:#163342;fill-opacity:1;fill-rule:nonzero;stroke:none"
           d="m 15819.6,2355.21 c 0,0 -68.9,-171.52 -126.8,-239.51 -58,-67.99 -280.1,-189.54 -281.3,-391.51 -1.3,-218.98 374.4,-158.17 521.3,-150.16 146.9,8.01 158,124.97 219.9,248.94 61.8,123.96 124.1,103.02 135.7,202.97 11.6,100.02 -47.3,323.85 -47.3,323.85 l -421.5,5.42" /></g><g
         transform="scale(1.19437)"
         id="g22"><path
           id="path24"
           style="fill:#2f6b8c;fill-opacity:1;fill-rule:nonzero;stroke:none"
           d="m 15870.5,2427.3 11.5,-113.03 c 0,0 198.7,-77.28 418,0 l -1.4,142.25 -428.1,-29.22" /></g><g
         transform="scale(1.35641)"
         id="g26"><path
           id="path28"
           style="fill:#163342;fill-opacity:1;fill-rule:nonzero;stroke:none"
           d="m 15938.2,2081.37 c 0,0 60.8,-151.57 112,-211.66 51.3,-60.08 247.5,-167.5 248.6,-345.98 1.2,-193.53 -330.8,-139.78 -460.6,-132.71 -129.8,7.08 -139.6,110.44 -194.3,220 -54.7,109.55 -109.8,91.04 -120.1,179.37 -10.2,88.39 41.9,286.2 41.9,286.2 l 372.5,4.78" /></g><g
         transform="scale(1.32678)"
         id="g30"><path
           id="path32"
           style="fill:#2f6b8c;fill-opacity:1;fill-rule:nonzero;stroke:none"
           d="m 16300,2185.07 -10.3,-101.75 c 0,0 -179,-69.57 -376.4,0 l 1.3,128.05 385.4,-26.3" /></g><g
         transform="scale(1.34969)"
         id="g34"><path
           id="path36"
           style="fill:#385369;fill-opacity:1;fill-rule:nonzero;stroke:none"
           d="m 16300,4641.45 c 0,-239.76 -141.1,-2497.32 -141.1,-2497.32 -23.2,-79.95 -533.5,-54.24 -610.8,-14.23 -77.2,39.94 44.8,2265.19 30.5,2506.95 -14.3,241.76 -367.8,2042.48 -435.5,2034.47 -67.8,-8 -293.1,-2001.57 -347.2,-2185.39 -54,-183.82 -299.3,-2363.22 -299.3,-2363.22 -169.9,-103.87 -574,26.16 -574,26.16 0,0 84.6,2237.63 94.4,2305.12 14.3,100.03 -0.7,369.5 38.6,967.49 35.2,535.01 162.2,1699.73 242.8,2330.46 2.8,22.45 5.7,44.02 8.3,64.61 15.7,122.77 27.6,213.02 33.3,256.28 2.4,18.67 3.8,28.68 3.8,28.68 21.7,10.3 44.3,19.85 68,28.67 565.8,210.27 1657,-12.37 1657,-12.37 0,0 0.7,-5.56 2,-15.93 1.4,-12.67 3.7,-32.6 6.6,-58.31 6.3,-55.65 15.7,-138.41 26.4,-234.58 0.1,-0.66 0.2,-1.33 0.2,-2.07 0.3,-2.89 0.7,-5.85 1,-8.74 38.1,-342.08 91.9,-842.94 86.8,-895.02 -7.7,-79.95 108.2,-2021.95 108.2,-2261.71" /></g><g
         transform="scale(1.34104)"
         id="g38"><path
           id="path40"
           style="fill:#4f7594;fill-opacity:1;fill-rule:nonzero;stroke:none"
           d="m 15595.9,2390.6 31.8,-311.62 c 0,0 27.6,-43.85 320.3,-52.65 292.6,-8.79 339.3,98.73 339.3,98.73 l 12.7,280.83 c 0,0 -256.6,-127.22 -704.1,-15.29" /></g><g
         transform="scale(1.20455)"
         id="g42"><path
           id="path44"
           style="fill:#4f7594;fill-opacity:1;fill-rule:nonzero;stroke:none"
           d="m 16300,2648.97 -33.2,-324.61 c 0,0 -28.7,-45.74 -333.7,-54.88 -305,-9.13 -353.5,102.87 -353.5,102.87 l -13.3,292.64 c 0,0 267.4,-132.58 733.7,-16.02" /></g><g
         transform="scale(1.23814)"
         id="g46"><path
           id="path48"
           style="fill:#fab546;fill-opacity:1;fill-rule:nonzero;stroke:none"
           d="m 16124.1,7332.24 c -23.1,10.42 -33.6,38.12 -23.6,61.95 10,23.9 36.8,34.81 59.9,24.39 23.1,-10.34 33.6,-38.13 23.5,-61.95 -10,-23.83 -36.8,-34.81 -59.8,-24.39 z m -2002,1081.22 -90.8,-216.05 2177.8,-980.59 90.9,216.05 -2177.9,980.59" /></g><g
         transform="scale(1.50145)"
         id="g50"><path
           id="path52"
           style="fill:#eea886;fill-opacity:1;fill-rule:nonzero;stroke:none"
           d="m 16300,9182.68 c 0,0 -82.5,-24.62 -116.5,-60.63 -33.9,-35.98 -63.1,254.79 -63.1,254.79 l 179.6,-194.16" /></g><g
         transform="scale(1.53456)"
         id="g54"><path
           id="path56"
           style="fill:#eea886;fill-opacity:1;fill-rule:nonzero;stroke:none"
           d="m 15732.7,9148.04 c 0,0 40.8,176.09 47.8,202.78 7,26.68 63.5,77.18 133.3,129.31 69.7,52.11 186.4,90.26 200.3,84.84 13.9,-5.39 30.3,-4.17 52,-36.61 21.5,-32.45 22.5,-72.15 22.5,-72.15 0,0 44.8,-27.07 42.5,-76.1 0,0 40.9,-27.44 29.5,-82.69 0,0 39.4,-27.92 27.7,-67.32 0,0 -56.5,-50.69 -72.2,-75.7 -15.7,-25.02 -140.2,-122.12 -273.5,-196.25 0,0 -144,-87.81 -209.9,189.89" /></g><g
         transform="scale(1.52054)"
         id="g58"><path
           id="path60"
           style="fill:#cf8c6c;fill-opacity:1;fill-rule:nonzero;stroke:none"
           d="m 16107.7,9355.24 c 0,0 19.7,-89.52 12.9,-117.54 -6.8,-28.01 179.4,-22.05 179.4,-22.05 0,0 -86.5,161.38 -192.3,139.59" /></g><g
         transform="scale(1.53482)"
         id="g62"><path
           id="path64"
           style="fill:#db9c7c;fill-opacity:1;fill-rule:nonzero;stroke:none"
           d="m 16092.7,9550.46 c 0,0 -173.6,-136.56 -155.8,-168.19 17.8,-31.64 42.9,-32.09 42.9,-32.09 l -46.7,-89.74 c 0,0 1.3,-77.51 82.6,-53.25 0,0 -6,-72.54 69.7,-39.45 0,0 16.8,-49.65 54.5,-40.72 37.6,8.92 145.8,101.57 145.8,101.57 0,0 14.3,30.18 -27.7,67.31 0,0 14,52.23 -29.6,82.67 0,0 4.9,43.64 -42.4,76.09 0,0 3.5,98.17 -74.5,108.75 0,0 -11.5,-7.14 -18.8,-12.95" /></g><g
         transform="scale(1.50045)"
         id="g66"><path
           id="path68"
           style="fill:#eea886;fill-opacity:1;fill-rule:nonzero;stroke:none"
           d="m 16300,9598.48 c 0,0 -89.5,197.17 -151.1,266.89 -13.9,15.77 -17.8,22.7 -37.2,15.28 -19.4,-7.43 -5.6,-87.38 12.5,-153.49 18,-66.11 14.3,-166.68 14.3,-166.68 0,0 35.6,-55.72 161.5,38" /></g><g
         transform="scale(1.5099)"
         id="g70"><path
           id="path72"
           style="fill:#eea886;fill-opacity:1;fill-rule:nonzero;stroke:none"
           d="m 16005.5,9186.54 c 0,0 20.7,86.18 16.3,145.99 -4.5,59.81 278.2,-126.59 278.2,-126.59 0,0 -99.7,-99.21 -176,-173.08 -60.8,-58.92 -118.5,153.68 -118.5,153.68" /></g><g
         transform="scale(1.14004)"
         id="g74"><path
           id="path76"
           style="fill:#eea886;fill-opacity:1;fill-rule:nonzero;stroke:none"
           d="m 15666.2,8545.38 c 0,0 -14.2,58.77 -8.5,85.87 0,0 14.2,47.9 22.1,82.81 2.5,11.14 4.4,20.87 5,27.45 2.4,27.28 -0.5,89.21 23.6,150.52 24.1,61.23 198.5,287.89 198.5,287.89 l 160.7,-80.79 157.8,-54.91 c 0,0 74.6,-428.32 59.1,-489.01 -1.6,-5.97 -3.4,-11.67 -5.5,-16.93 -18.2,-49.3 -53.3,-75.09 -65.9,-99.47 -4.7,-8.86 -57.7,-93.25 -88.7,-93.86 -42.9,-0.97 -75.5,16.67 -95.7,41.93 0,0 -84.7,2.1 -133,40.7 0,0 -77.8,-0.7 -127,63.15 0,0 -80.3,8.51 -102.5,54.65" /></g><g
         transform="scale(1.50033)"
         id="g78"><path
           id="path80"
           style="fill:#fa7126;fill-opacity:1;fill-rule:nonzero;stroke:none"
           d="m 16300,9146.45 c 0,0 -560.5,-956.44 -761.2,-905.34 -92.8,23.61 -400.4,268.87 -516.6,424.68 -38.2,51.32 -75.8,105.15 -111.6,158.46 0,0.1 0,0.22 0,0.22 -142.5,212.86 -254.2,416.9 -254.2,416.9 0,0 -421.2,510.7 -83.2,738.35 0,0 162.1,11.22 274.8,-113.71 112.7,-124.93 205.5,-349.86 235.1,-416.5 29.5,-66.55 419.5,-547.24 440.9,-561.14 21.5,-13.9 168.8,68.61 265.8,180.71 142.9,165.13 298.3,388.02 298.3,388.02 l 211.9,-310.65" /></g><g
         transform="scale(1.30509)"
         id="g82"><path
           id="path84"
           style="fill:#eea987;fill-opacity:1;fill-rule:nonzero;stroke:none"
           d="m 16198.2,11769.8 c 0,0 101.8,-22.5 -324.3,-444.9 0,0 -302.2,345.8 -292.5,403.7 9.8,58 616.8,41.2 616.8,41.2" /></g><g
         transform="scale(1.36739)"
         id="g86"><path
           id="path88"
           style="fill:#fa7126;fill-opacity:1;fill-rule:nonzero;stroke:none"
           d="m 15889.2,7762.69 c 0,0 -29.8,805.99 -20,1027.98 14.5,325.67 71.4,619.32 117.8,811.96 0.1,0.51 0.2,0.93 0.4,1.35 l 0.4,1.9 c 12.1,50.14 23.5,93.34 33.1,128.37 l 279.1,1081.35 c -195.8,227.9 -846.6,420 -846.6,420 h -461.2 c 0,0 -808.4,-257.7 -1006.6,-336.6 -198.3,-78.9 -646.2,-1631.12 -652.6,-1720.41 -7.1,-96.51 -192.7,-1607.14 -192.7,-1607.14 240.8,-17.55 449.1,-38.32 449.1,-38.32 0,0 183.2,1248.47 208.2,1377.69 18.5,96.34 292.3,881.31 312.6,870.77 20.3,-10.56 159.8,-811.85 19.7,-2001.28 0,0 559.9,-217.63 1759.3,-17.62" /></g><g
         transform="scale(1.31494)"
         id="g90"><path
           id="path92"
           style="fill:#eea987;fill-opacity:1;fill-rule:nonzero;stroke:none"
           d="m 15852.1,13293.7 c 0,0 447.9,-73 379.7,-798 -68.2,-725.1 -463.5,-665.6 -489.9,-664.9 -26.4,0.7 -396.9,-13.2 -425.8,872 0,0 -12.6,654.6 536,590.9" /></g><g
         transform="scale(1.29918)"
         id="g94"><path
           id="path96"
           style="fill:#eea987;fill-opacity:1;fill-rule:nonzero;stroke:none"
           d="m 16256,12190.4 c 0,0 -12.5,-301.8 15.8,-367.1 28.2,-65.4 -374.1,-275.3 -619.6,-41.4 0,0 59.3,328 42.8,444.3 -16.5,116.2 561,-35.8 561,-35.8" /></g><g
         transform="scale(1.31686)"
         id="g98"><path
           id="path100"
           style="fill:#eea987;fill-opacity:1;fill-rule:nonzero;stroke:none"
           d="m 16215,12682 c 0,0 49.1,54.1 67,-0.7 18,-54.8 -76,-299.6 -69.9,-310.6 0,0 -8.8,-21.3 -20.6,-9.6 -11.8,11.7 23.5,320.9 23.5,320.9" /></g><g
         transform="scale(1.23894)"
         id="g102"><path
           id="path104"
           style="fill:#eea987;fill-opacity:1;fill-rule:nonzero;stroke:none"
           d="m 16261,13489.3 c 0,0 -50.9,58.5 -71.1,0.7 -20.2,-57.8 58.4,-315.7 68.1,-331.5 0,0 16.6,-26.4 29.3,-14.2 12.7,12.2 -26.3,345 -26.3,345" /></g><g
         transform="scale(1.31502)"
         id="g106"><path
           id="path108"
           style="fill:#385369;fill-opacity:1;fill-rule:nonzero;stroke:none"
           d="m 16265.6,12761.5 c -14.3,-99.3 -28.1,-173 -28.1,-173 l -64.1,-88.7 c 0,0 1.7,194.4 -8.5,224.8 -3.9,11.6 -8.5,32 -13.3,54.2 -7.9,36.5 -15.9,77.8 -21.3,91.5 -8.6,21.9 -384.7,130.9 -716.8,-31.8 0,0 3.2,-29.9 3.2,-63.3 0.3,-38.8 -3.3,-82.3 -20.4,-89 -31.9,-12.5 -16.3,-227.8 -16.3,-227.8 l -52.7,61.6 c 0,0 -16.2,112.4 -32.4,241.5 0,0 -0.1,0.3 -0.1,0.9 -3.7,30.2 -7.4,61.1 -11,91.9 -8.9,130 1.1,366.3 163.4,506.9 109.9,50.2 289.2,64.7 584.1,-25.1 0,0 37.1,8.1 83.4,6.5 185.3,-206.4 150.9,-581.1 150.9,-581.1" /></g><g
         transform="scale(1.29189)"
         id="g110"><path
           id="path112"
           style="fill:#a77860;fill-opacity:1;fill-rule:nonzero;stroke:none"
           d="m 15816.5,12138.1 c 0,0 73.8,-103.5 242.5,-97.7 168.7,5.9 241,97.7 241,97.7 0,0 -78.1,-173.8 -241,-173.8 -163,0 -242.5,173.8 -242.5,173.8" /></g><g
         transform="scale(1.31769)"
         id="g114"><path
           id="path116"
           style="fill:#fab546;fill-opacity:1;fill-rule:nonzero;stroke:none"
           d="m 16232.8,12735.7 c 0,0 -39,8.6 -113.9,17.2 -134.6,15.5 -385.3,31 -733.3,-3.5 -39.2,-3.9 -79.8,-8.4 -121.6,-13.7 0,0 -0.1,0.3 -0.1,1 -1.2,6 -7.5,40.6 -11,91.6 -8.8,129.7 -24.2,367.6 137.6,507.9 68.9,59.9 190.4,109.1 325,110.1 227.8,1.7 322.1,-56.6 399.6,-143 184.9,-206 117.7,-567.6 117.7,-567.6" /></g><g
         transform="scale(1.31225)"
         id="g118"><path
           id="path120"
           style="fill:#d99d3d;fill-opacity:1;fill-rule:nonzero;stroke:none"
           d="m 16300,12788.5 c 0,0 -176.3,-77.9 -488.5,-76 -312.2,2 -484.3,76 -484.3,76 0,0 179.6,63.7 494.6,63.7 315,0 478.2,-63.7 478.2,-63.7" /></g><g
         transform="scale(1.33991)"
         id="g122"><path
           id="path124"
           style="fill:#385369;fill-opacity:1;fill-rule:nonzero;stroke:none"
           d="m 16300,9637.12 c 0,0 -289.3,135.87 -393.8,604.88 h -1015.5 c 0,0 -300.1,-632.31 -463.7,-667.51 0,0 42.1,-681.53 24.4,-946.73 -17.7,-265.2 -48.6,-819.24 -48.6,-819.24 0,0 47.4,-416.15 1834.2,-84.71 0,0 -40.8,1112.31 -38.4,1159.38 2.4,47.07 94.2,726.21 101.4,753.93" /></g><g
         transform="scale(1.33874)"
         id="g126"><path
           id="path128"
           style="fill:#385369;fill-opacity:1;fill-rule:nonzero;stroke:none"
           d="m 15918.2,10251 c 0,0 124.3,653.2 381.8,1028.1 0,0 -28.9,32.9 -96.6,43.8 0,0 -287.4,-437.2 -393.9,-1071.9 -106.5,-634.71 108.7,0 108.7,0" /></g><g
         transform="scale(1.24258)"
         id="g130"><path
           id="path132"
           style="fill:#385369;fill-opacity:1;fill-rule:nonzero;stroke:none"
           d="m 16068.1,11044.3 c 0,0 -96.5,653.1 -373.8,1057.1 0,0 36.8,25.1 109.7,36.8 0,0 266.6,-410.1 381.2,-1093.9 114.8,-683.8 -117.1,0 -117.1,0" /></g><g
         transform="scale(1.30754)"
         id="g134"><path
           id="path136"
           style="fill:#446580;fill-opacity:1;fill-rule:nonzero;stroke:none"
           d="m 16019.4,9736.48 h -301 -301 l -280.6,-290.31 v -883.88 h 581.6 581.6 v 883.88 l -280.6,290.31" /></g><path
         id="path138"
         style="fill:#eea886;fill-opacity:1;fill-rule:nonzero;stroke:none"
         d="m 10770.7,10738.5 c 0,0 77.2,-280.4 87.6,-323.6 10.5,-43.2 -33,-159.5 -94.7,-288.6 -61.6,-129.1 -203,-276.2 -227.5,-279.6 -24.6,-3.6 -47.7,-18.5 -104.6,10 -56.8,28.4 -88.4,85 -88.4,85 0,0 -86,3.8 -120.6,74.7 0,0 -81.4,5.6 -107.6,92.5 0,0 -78.3,11 -94.4,69.8 0,0 43.4,116.6 46.9,164.4 3.5,47.7 132.7,270.6 270.4,481.6 0,0 120.5,252.1 432.9,-86.2" /><g
         transform="scale(1.08912)"
         id="g140"><path
           id="path142"
           style="fill:#446580;fill-opacity:1;fill-rule:nonzero;stroke:none"
           d="m 16155.2,16133.1 -357.8,-56.6 -26.6,166.9 357.7,56.6 26.7,-166.9" /></g><g
         transform="scale(1.1492)"
         id="g144"><path
           id="path146"
           style="fill:#faca7d;fill-opacity:1;fill-rule:nonzero;stroke:none"
           d="m 15368.9,15990.1 c -29.5,184.3 -203.6,309.9 -389,280.6 -185.3,-29.3 -311.6,-202.4 -282.2,-386.7 10.9,-67.9 41.5,-127.8 84.9,-175 46.6,-59.1 144.5,-195 163.8,-314.7 l 169.5,26.8 169.5,26.8 c -19.2,119.7 31.6,279.1 57.4,349.7 29,63.7 36,130.8 26.1,192.5" /></g><g
         transform="scale(1.14416)"
         id="g148"><path
           id="path150"
           style="fill:#fff8e6;fill-opacity:1;fill-rule:nonzero;stroke:none"
           d="m 14941.2,16234.8 c 0,0 -171.4,-113.6 -87.3,-350.1 0,0 32.3,-70.6 79.6,-63.1 47.3,7.4 33,47.7 33,47.7 -84.1,236.4 83.3,344.3 83.3,344.3 0,0 55.8,35.1 6.3,64.9 -35.8,21.5 -114.9,-43.7 -114.9,-43.7" /></g><g
         transform="scale(1.1348)"
         id="g152"><path
           id="path154"
           style="fill:#385369;fill-opacity:1;fill-rule:nonzero;stroke:none"
           d="m 8106.77,6014.38 c -34.61,74.37 -841.24,1831.51 -280.09,2690.96 200.86,307.64 552.88,459.73 1045.48,453.39 105.13,-1.5 262.42,-19.65 461.49,-42.65 520.71,-60.01 1307.65,-150.87 1989.15,-29.79 812.4,144.35 1255.9,541.33 1355.8,1213.61 170.4,1147.4 877.8,1507.5 1562,1855.6 449.1,228.6 913.4,464.9 1213.3,927.1 307.9,474.4 389.8,966.2 243.4,1461.5 -109.6,371.1 -313.6,605.5 -315.6,607.8 l 66.9,58.4 c 8.5,-9.8 851.4,-987.1 80.1,-2175.7 -312.9,-482.1 -788.1,-723.9 -1247.6,-957.8 -694.6,-353.5 -1350.8,-687.4 -1514.5,-1789.8 -241.9,-1628.19 -2404,-1378.71 -3443.17,-1258.78 -196.6,22.73 -351.96,40.62 -452.51,42.04 -460.24,6.87 -786.45,-132.54 -969.57,-413.03 -534.51,-818.47 277.9,-2587.95 286.17,-2605.75 l -80.75,-37.1" /></g><path
         id="path156"
         style="fill:#cf8c6c;fill-opacity:1;fill-rule:nonzero;stroke:none"
         d="m 10551.5,10387.7 c 0,0 -91.1,114.6 -100.3,159.7 -9.2,45 -318.3,-73.4 -318.3,-73.4 0,0 275.5,-192.6 418.6,-86.3" /><path
         id="path158"
         style="fill:#eea886;fill-opacity:1;fill-rule:nonzero;stroke:none"
         d="m 10623.5,10880.3 c 0,0 45.2,-129.4 102,-202.7 56.9,-73.3 -481.3,-79.5 -481.3,-79.5 0,0 49.6,215.1 89.4,377.1 31.8,129.2 289.9,-94.9 289.9,-94.9" /><path
         id="path160"
         style="fill:#db9c7c;fill-opacity:1;fill-rule:nonzero;stroke:none"
         d="m 10553.5,9879.9 c 0,0 148.2,331 97.5,361.4 -50.7,30.3 -87.8,10.9 -87.8,10.9 l -1.2,163.7 c 0,0 -62.4,108 -162.5,8.9 0,0 -47.7,106.9 -132.9,-0.2 0,0 -63.1,56.5 -111.4,13.8 -48.3,-42.7 -134.7,-259.7 -134.7,-259.7 0,0 2.4,-53.9 92.9,-72.5 0,0 20.1,-84.8 107.6,-92.9 0,0 26.8,-65.3 121.3,-73.1 0,0 71.2,-141.1 193.8,-93.5 0,0 11.3,19.2 17.4,33.2" /><path
         id="path162"
         style="fill:#eea886;fill-opacity:1;fill-rule:nonzero;stroke:none"
         d="m 10854.8,10404 c 0,0 -194.7,-156.2 -338.7,-195 -32.5,-8.7 -65.7,-11.4 -86.2,15.4 -20.4,26.7 -7.5,90.2 73.4,162.1 80.8,71.9 152.3,201.6 152.3,201.6 0,0 104.9,49.8 199.2,-184.1" /><path
         id="path164"
         style="fill:#dbdff0;fill-opacity:1;fill-rule:nonzero;stroke:none"
         d="m 12684.6,14426 c 0,0 445.9,559.3 -169,807.2 -338.4,136.3 -717.5,-160.2 -1157,-1088.5 0,0 -554.3,-880 -604.6,-1087.3 -133.9,-551.2 -497.2,-2024.1 -474.9,-2270.3 l 532.5,-133.8 c 0,0 378,1127.2 493.3,1624 95.3,410.6 191.4,596.6 191.4,596.6 l 1188.3,1552.1" /><g
         transform="scale(1.09433)"
         id="g166"><path
           id="path168"
           style="fill:#eea886;fill-opacity:1;fill-rule:nonzero;stroke:none"
           d="m 16274.8,15525.7 c 0,0 -43.1,-56.5 -72.1,-70.9 0,0 -54.7,-21.8 -92.7,-39.9 -12,-5.8 -22.5,-11.1 -28.9,-15.4 -26.9,-17.7 -81.4,-65.8 -155.8,-88 -74.4,-22.1 -414.8,-24 -414.8,-24 l -48.5,210.4 -70,188.8 c 0,0 335,383.9 402.5,413.8 6.6,2.8 13.1,5.4 19.5,7.3 59.2,18.9 109.4,4.8 141.4,10.7 11.7,2.1 129.4,14.1 153.5,-14.6 33.6,-39.8 42.3,-83.3 34.6,-120.9 0,0 62.6,-81.2 64.2,-154.9 0,0 59.9,-72.8 38.9,-165.9 0,0 53.4,-81.8 28.2,-136.5" /></g><path
         id="path170"
         style="fill:#31485c;fill-opacity:1;fill-rule:nonzero;stroke:none"
         d="m 13462.4,2853.5 c 0,0 423.1,54.1 438.5,65.8 15.4,11.8 115.6,170.2 178.3,137.5 62.8,-32.7 50.9,-232.5 112,-270.3 61,-37.7 538.5,-404.2 595.8,-469 57.4,-64.8 437.5,-52.7 474.1,-161.4 36.5,-108.7 24.3,-359.3 -535.6,-264.9 -559.7,94.3 -1209,43.7 -1326.1,117.5 -117.2,73.9 14,686 63,844.8" /><path
         id="path172"
         style="fill:#31485c;fill-opacity:1;fill-rule:nonzero;stroke:none"
         d="m 10656,2953.7 c 0,0 424.2,44.3 439.9,55.7 15.7,11.4 119.5,167.4 181.5,133.2 62,-34.2 45.4,-233.6 105.5,-272.7 60.2,-39.2 528.9,-416.6 584.8,-482.8 55.8,-66.1 436.1,-62.8 470.1,-172.3 34,-109.5 15.8,-359.8 -541.6,-252.5 -557.4,107.4 -1207.7,71.7 -1323.1,148.3 -115.3,76.5 30.2,685.4 82.9,843.1" /><g
         transform="scale(1.058)"
         id="g174"><path
           id="path176"
           style="fill:#eea886;fill-opacity:1;fill-rule:nonzero;stroke:none"
           d="m 12605.7,14909.2 c -2.5,-7.6 -5.4,-15.2 -7.9,-22.8 -15,-44.6 -28,-89.2 -38.8,-132.5 -60.5,-241.3 -60.5,-451 -60.5,-451 35.7,-145.1 -584.7,441.5 -584.7,441.5 0,0 32.8,481.3 -16.8,1018.6 -49.9,537 708.7,-853.8 708.7,-853.8" /></g><path
         id="path178"
         style="fill:#fab546;fill-opacity:1;fill-rule:nonzero;stroke:none"
         d="m 13541.2,12371.1 c -95.3,-493.6 -45.5,-1206.3 33.9,-2008 0,0 -350.8,-109.4 -2208.4,-406.9 -73.8,2395.3 383.1,4628.6 383.1,4628.6 80.3,524.2 403.4,714.3 835.2,1039.1 0,0 83.6,-3.3 670.8,-421 41.1,-29.2 231.4,-406.9 350.3,-827.3 295.6,-1045.3 36.3,-1477.3 -64.9,-2004.5" /><path
         id="path180"
         style="fill:#dbdff0;fill-opacity:1;fill-rule:nonzero;stroke:none"
         d="m 13095.9,13339.3 c -212.1,-365.8 -619.3,-607.7 -829.8,-503.5 -295.3,148.1 -548.6,1898.2 -6.6,2206.8 0,0 259,130.5 511.3,25.6 213.5,-88.7 375,-419 439.8,-909.1 7.5,-56.4 13.6,-114.7 18.4,-175.2 2.8,-34.6 5.1,-69.8 7,-105.7 10,-193.9 -47,-379 -140.1,-538.9" /><g
         transform="scale(1.09061)"
         id="g182"><path
           id="path184"
           style="fill:#eea886;fill-opacity:1;fill-rule:nonzero;stroke:none"
           d="m 12582.8,15772.2 c 0,0 202.8,-302.3 121.8,-359.8 -66.9,-47.5 116.2,-345.6 141.1,-394.8 24.9,-49.2 -119.8,-100 -148.2,-135.9 -28.4,-35.7 -83.7,-448.7 -204.6,-472.2 -121,-23.6 -689,115.4 -853.4,256.3 -164.3,140.9 -353.1,828.8 -280.9,1133.1 72.1,304.3 867,501.1 1224.2,-26.7" /></g><g
         transform="scale(1.09168)"
         id="g186"><path
           id="path188"
           style="fill:#754836;fill-opacity:1;fill-rule:nonzero;stroke:none"
           d="m 12613,15694.9 c 0,0 31.5,155 -312.5,380 -344,225.1 -781.1,-76 -846,-99.3 -64.9,-23.2 -348.8,-345.6 -187.2,-724.9 270.1,-633.8 289.3,-613.5 289.3,-613.5 0,0 1.7,381.2 118.9,420.1 127.2,42.2 328.8,108.1 328.8,108.1 0,0 -140.9,287.4 31.6,346.1 172.4,58.5 392.5,232.7 577.1,183.4" /></g><g
         transform="scale(1.02625)"
         id="g190"><path
           id="path192"
           style="fill:#eea886;fill-opacity:1;fill-rule:nonzero;stroke:none"
           d="m 12690.9,16101.7 c -12.8,36.3 -71.3,198.3 -199.7,161.2 -128.6,-37.1 -65.2,-237.3 47.3,-347.1 112.7,-109.8 224.1,-16.1 152.4,185.9" /></g><g
         transform="scale(1.11437)"
         id="g194"><path
           id="path196"
           style="fill:#446580;fill-opacity:1;fill-rule:nonzero;stroke:none"
           d="m 12396.9,15379.1 c 0,0 -368.2,920.9 -1135.7,497.5 -892.8,-492.6 -99.3,-1223.7 -99.3,-1223.7 0,0 216.2,418.5 1235,726.2" /></g><path
         id="path198"
         style="fill:#fab546;fill-opacity:1;fill-rule:nonzero;stroke:none"
         d="m 12585,15623.9 12.2,84.3 669,-392.3 -10.4,-113 -670.8,421" /><path
         id="path200"
         style="fill:#fab546;fill-opacity:1;fill-rule:nonzero;stroke:none"
         d="m 12886.4,9501.7 c 0,0 -105.5,-726.2 -220,-1470.2 -23.4,-152.2 -47.2,-305.2 -70.4,-452.8 -2.7,-16.6 -5.3,-33.2 -7.9,-49.6 -20.8,-131.2 -41.2,-257.7 -60.5,-375 -59.5,-360.4 -109.2,-633.7 -131.8,-693.5 -80.7,-213.5 -936.8,-3489.3 -936.8,-3489.3 0,0 -905.2,-165.9 -930.1,-77 0,0 794.6,3769 787.7,3891.5 -6.9,122.4 42,3570 42,3570 0,0 1491.9,-654.9 1527.8,-854.1" /><path
         id="path202"
         style="fill:#fab546;fill-opacity:1;fill-rule:nonzero;stroke:none"
         d="m 13549.9,10627.1 c 0,0 402.1,-3400.3 442.4,-3662.4 40.3,-262.1 316.8,-4179.4 316.8,-4179.4 0,0 -419,-232.5 -962.3,-82.9 0,0 -509.1,4142.5 -564.5,4271 -214.8,498.8 -731.7,2981.8 -827.2,3323.3 -95.5,341.5 -575.9,663.6 -575.9,663.6 0,0 973.7,425.8 2170.7,-333.2" /><g
         transform="scale(1.05439)"
         id="g204"><path
           id="path206"
           style="fill:#dbdff0;fill-opacity:1;fill-rule:nonzero;stroke:none"
           d="m 11995.6,14379.1 c 0,0 -788.8,-105.2 -490.2,-725.7 292.9,-608.6 819.2,-229.7 2461.7,166 0,0 494.1,154 753.9,373 415,350 1423.1,1482.1 1561.2,1585.5 l -302.9,522.1 c 0,0 -634.1,-618.5 -998.6,-867.4 -364.5,-248.8 -906,-734.2 -906,-734.2 l -2079.1,-319.3" /></g><path
         id="path208"
         style="fill:#385369;fill-opacity:1;fill-rule:nonzero;stroke:none"
         d="m 9393.12,10119.1 c -380.1,0 -689.32,-608.9 -689.32,-1357.5 0,-748.5 309.22,-1357.5 689.32,-1357.5 380.07,0 689.28,609 689.28,1357.5 0,748.6 -309.21,1357.5 -689.28,1357.5 z m 0,-2815.4 c -443.15,0 -790.3,640.4 -790.3,1457.9 0,817.6 347.15,1457.9 790.3,1457.9 443.13,0 790.28,-640.3 790.28,-1457.9 0,-817.5 -347.15,-1457.9 -790.28,-1457.9" /><path
         id="path210"
         style="fill:#fab546;fill-opacity:1;fill-rule:nonzero;stroke:none"
         d="m 9374.33,6907.7 -256.98,-100.8 37.04,-93.3 27.94,10.9 43.68,-109.9 58.07,22.8 -43.66,110 84.91,33.3 43.66,-110 58.1,22.8 -43.65,110 27.92,10.9 -37.03,93.3" /><g
         transform="scale(1.07504)"
         id="g212"><path
           id="path214"
           style="fill:#446580;fill-opacity:1;fill-rule:nonzero;stroke:none"
           d="m 12731.1,15904 762.6,227.2 c 0,0 40.2,168.8 -737.5,-66.7 -777.6,-235.4 -25.1,-160.5 -25.1,-160.5" /></g><path
         id="path216"
         style="fill:#a9adba;fill-opacity:1;fill-rule:nonzero;stroke:none"
         d="m 13229,13983.9 c -333.9,-31.9 -639.6,76.8 -639.6,76.8 240.9,-5.9 613,96.1 621.2,98.4 7.5,-56.4 13.6,-114.7 18.4,-175.2" /><path
         id="path218"
         style="fill:#c99238;fill-opacity:1;fill-rule:nonzero;stroke:none"
         d="m 12596,7578.7 c -2.7,-16.6 -5.3,-33.2 -7.9,-49.6 -20.8,-131.2 -41.2,-257.7 -60.5,-375 -269.9,1028.7 -316.3,2032.3 -316.3,2032.3 28.7,-332 381.9,-1597.8 384.7,-1607.7" /><path
         id="path220"
         style="fill:#a77860;fill-opacity:1;fill-rule:nonzero;stroke:none"
         d="m 13328.5,15749.9 c -15.8,-47.2 -29.6,-94.4 -41,-140.2 -299.2,98.7 -456.4,301.8 -456.4,301.8 238.6,-102.7 497.4,-161.6 497.4,-161.6" /><g
         transform="scale(1.92405)"
         id="g222"><path
           id="path224"
           style="fill:#eea886;fill-opacity:1;fill-rule:nonzero;stroke:none"
           d="m 16067.5,6064.24 c 0,0 -65.2,-100.73 -74.7,-116.41 -9.5,-15.7 -6.8,-66.68 1.4,-124.94 8.3,-58.26 45.7,-133.33 54.9,-137.74 9.3,-4.37 16.6,-13.05 42.5,-8.84 25.9,4.21 45.5,21.88 45.5,21.88 0,0 34.4,-9.72 56.9,13.88 0,0 32.8,-7.64 53.9,23.3 0,0 32.2,-6.63 45.7,17.14 0,0 -2.6,51.09 1.9,70.28 4.5,19.18 -18.7,122.53 -46.7,222.26 0,0 -16.2,113.81 -181.3,19.19" /></g><g
         transform="scale(1.92239)"
         id="g226"><path
           id="path228"
           style="fill:#cf8c6c;fill-opacity:1;fill-rule:nonzero;stroke:none"
           d="m 16124.2,5904.68 c 0,0 50.2,33.89 59.4,50.48 9.2,16.56 116.4,-67.87 116.4,-67.87 0,0 -132.6,-41.97 -175.8,17.39" /></g><g
         transform="scale(1.92083)"
         id="g230"><path
           id="path232"
           style="fill:#eea886;fill-opacity:1;fill-rule:nonzero;stroke:none"
           d="m 16170.2,6112.11 c 0,0 -33.9,-45.37 -65.5,-67.23 -31.5,-21.88 180,-90.34 180,-90.34 0,0 7.2,90.75 11.7,159.36 3.6,54.72 -126.2,-1.79 -126.2,-1.79" /></g><g
         transform="scale(1.94258)"
         id="g234"><path
           id="path236"
           style="fill:#d1d1d1;fill-opacity:1;fill-rule:nonzero;stroke:none"
           d="m 16043.6,5770 c -129.1,0 -234.1,-121.16 -234.1,-270.04 0,-148.92 105,-270.05 234.1,-270.05 129.1,0 234.2,121.13 234.2,270.05 0,148.88 -105.1,270.04 -234.2,270.04 z m 0,-562.12 c -141.3,0 -256.3,131.01 -256.3,292.08 0,161.08 115,292.07 256.3,292.07 141.4,0 256.4,-130.99 256.4,-292.07 0,-161.07 -115,-292.08 -256.4,-292.08" /></g><g
         transform="scale(1.92129)"
         id="g238"><path
           id="path240"
           style="fill:#fa7126;fill-opacity:1;fill-rule:nonzero;stroke:none"
           d="m 16300,6034.49 -245.9,17.97 c 0,0 -158.9,667.75 -189.4,952.28 -0.1,5.51 -22.9,118.47 -47.2,237.18 v 0.05 c -12.1,58.72 -24.4,118.8 -34.6,168 0,0.05 0,0.1 0,0.1 -13.3,64.14 -22.7,109.82 -22.7,109.82 0,0 -246.3,597.82 53.2,551.11 0,0 79.6,2.57 185.3,-234.16 79.3,-177.42 76.1,-210 114.3,-367.75 26.5,-109.31 63.5,-267.47 94,-488.12 6.8,-48.49 13.3,-127.8 43.3,-383.36 13.1,-111.56 49.7,-563.12 49.7,-563.12" /></g><g
         transform="scale(1.94375)"
         id="g242"><path
           id="path244"
           style="fill:#fa7126;fill-opacity:1;fill-rule:nonzero;stroke:none"
           d="m 16300,4759.4 h -532.2 v 699.26 H 16300 V 4759.4" /></g><g
         transform="scale(1.94375)"
         id="g246"><path
           id="path248"
           style="fill:#ebebeb;fill-opacity:1;fill-rule:nonzero;stroke:none"
           d="m 16300,4759.4 h -532.2 v 503.2 h 532.2 v -503.2" /></g><g
         transform="scale(1.94375)"
         id="g250"><path
           id="path252"
           style="fill:#d1d1d1;fill-opacity:1;fill-rule:nonzero;stroke:none"
           d="m 16300,4759.4 h -532.2 v 27.26 h 532.2 v -27.26" /></g><g
         transform="scale(1.58794)"
         id="g254"><path
           id="path256"
           style="fill:#fa7126;fill-opacity:1;fill-rule:nonzero;stroke:none"
           d="m 15546.4,11224.3 -33.6,-0.3 -1.8,147.7 755.1,122.7 -4.1,345.3 -130.3,-1.5 -0.4,33.4 163.9,1.9 4.8,-407.3 -755,-122.8 1.4,-119.1" /></g><g
         transform="scale(1.57315)"
         id="g258"><path
           id="path260"
           style="fill:#e3dddd;fill-opacity:1;fill-rule:nonzero;stroke:none"
           d="m 16300,11773.8 -1237.4,-14.4 -4.6,386.4 1237.4,14.3 4.6,-386.3" /></g><g
         transform="scale(1.5211)"
         id="g262"><path
           id="path264"
           style="fill:#877373;fill-opacity:1;fill-rule:nonzero;stroke:none"
           d="m 16300,10575.5 h -175.5 v 1170.3 h 175.5 v -1170.3" /></g><g
         transform="scale(1.77776)"
         id="g266"><path
           id="path268"
           style="fill:#5c544d;fill-opacity:1;fill-rule:nonzero;stroke:none"
           d="m 16012.2,3587.66 c 0,0 38.8,-150.75 44,-173.48 5.2,-22.67 243.8,39.83 243.8,39.83 l -0.2,184.39 c 0,0 -259.6,-25.88 -287.6,-50.74" /></g><g
         transform="scale(1.79034)"
         id="g270"><path
           id="path272"
           style="fill:#3c4145;fill-opacity:1;fill-rule:nonzero;stroke:none"
           d="m 15938.7,3409.23 c 0,0 -66.3,-99.75 -135.8,-147.62 -69.4,-47.81 -337.4,-109.7 -376.5,-155.67 -28.2,-33.23 -67.6,-158.96 362.5,-101.6 305.5,40.77 456.2,30.5 483.7,83.28 27.4,52.78 -87.2,358.48 -87.2,358.48 0,0 -65.3,-35.25 -246.7,-36.87" /></g><g
         transform="scale(1.73294)"
         id="g274"><path
           id="path276"
           style="fill:#faa146;fill-opacity:1;fill-rule:nonzero;stroke:none"
           d="m 16188.2,1079.26 -700.4,7153.14 111.8,10.74 700.4,-7153.09 -111.8,-10.79" /></g><g
         transform="scale(1.92512)"
         id="g278"><path
           id="path280"
           style="fill:#faa146;fill-opacity:1;fill-rule:nonzero;stroke:none"
           d="m 16199.4,1128.03 -630.5,6439.08 100.6,9.67 630.5,-6439.03 -100.6,-9.72" /></g><g
         transform="scale(1.84747)"
         id="g282"><path
           id="path284"
           style="fill:#faa146;fill-opacity:1;fill-rule:nonzero;stroke:none"
           d="m 14604.4,7481.78 -10.1,103.91 1695.5,163.1 10.2,-103.91 -1695.6,-163.1" /></g><g
         transform="scale(1.85614)"
         id="g286"><path
           id="path288"
           style="fill:#faa146;fill-opacity:1;fill-rule:nonzero;stroke:none"
           d="m 14612.4,6669.02 -10.2,103.42 1687.7,162.33 10.1,-103.41 -1687.6,-162.34" /></g><g
         transform="scale(1.86481)"
         id="g290"><path
           id="path292"
           style="fill:#faa146;fill-opacity:1;fill-rule:nonzero;stroke:none"
           d="m 14620.2,5863.82 -10.1,102.94 1679.8,161.58 10.1,-102.94 -1679.8,-161.58" /></g><g
         transform="scale(1.87348)"
         id="g294"><path
           id="path296"
           style="fill:#faa146;fill-opacity:1;fill-rule:nonzero;stroke:none"
           d="m 14628,5066.07 -10.1,102.43 1672.1,160.82 10,-102.43 -1672,-160.82" /></g><g
         transform="scale(1.88216)"
         id="g298"><path
           id="path300"
           style="fill:#faa146;fill-opacity:1;fill-rule:nonzero;stroke:none"
           d="m 14635.6,4275.62 -10,102.01 1664.4,160.08 10,-102.01 -1664.4,-160.08" /></g><g
         transform="scale(1.89083)"
         id="g302"><path
           id="path304"
           style="fill:#faa146;fill-opacity:1;fill-rule:nonzero;stroke:none"
           d="m 14643.3,3492.49 -9.9,101.49 1656.7,159.4 9.9,-101.49 -1656.7,-159.4" /></g><g
         transform="scale(1.8995)"
         id="g306"><path
           id="path308"
           style="fill:#faa146;fill-opacity:1;fill-rule:nonzero;stroke:none"
           d="m 14650.8,2716.5 -9.9,101.08 1649.2,158.62 9.9,-101.08 -1649.2,-158.62" /></g><g
         transform="scale(1.90818)"
         id="g310"><path
           id="path312"
           style="fill:#faa146;fill-opacity:1;fill-rule:nonzero;stroke:none"
           d="m 14658.3,1947.51 -9.8,100.62 1641.6,157.9 9.9,-100.57 -1641.7,-157.95" /></g><g
         transform="scale(1.91685)"
         id="g314"><path
           id="path316"
           style="fill:#faa146;fill-opacity:1;fill-rule:nonzero;stroke:none"
           d="m 14665.8,1185.59 -9.8,100.12 1634.2,157.18 9.8,-100.11 -1634.2,-157.19" /></g><g
         transform="scale(1.54523)"
         id="g318"><path
           id="path320"
           style="fill:#eea886;fill-opacity:1;fill-rule:nonzero;stroke:none"
           d="m 15739.4,10883 c 0,0 25.9,-31.8 44,-40.2 0,0 34.3,-12.8 58.1,-23.4 7.6,-3.4 14,-6.5 18,-9 16.7,-10.1 50.1,-37.5 97,-50.9 46.9,-13.3 258.9,-61.2 258.9,-61.2 l 49.3,124.7 35.3,100.7 c 0,0 -196.2,251.9 -238.5,269.4 -4.1,1.7 -8.3,3.2 -12.3,4.3 -37.1,11.4 -69.6,4.3 -89.9,8.1 -7.3,1.3 -82.1,9.7 -98.3,-5.8 -22.5,-21.4 -29.3,-45.3 -25.3,-66.2 0,0 -42.2,-43.9 -45.3,-84.6 0,0 -40.2,-39.2 -29.4,-90.9 0,0 -36.3,-44.4 -21.6,-75" /></g><g
         transform="scale(1.86801)"
         id="g322"><path
           id="path324"
           style="fill:#fa7126;fill-opacity:1;fill-rule:nonzero;stroke:none"
           d="m 16290.7,5726.35 -77,599.6 c -29.4,240.18 -54.2,464.28 -51,513.01 7.8,119.34 31.2,289.56 53.5,433.84 0,0.56 0.1,1 0.1,1.33 0,0.25 0.1,0.47 0.1,0.66 l 81.3,1013.39 c -99,68.53 -412.7,142.37 -532.5,166.1 h -362.9 c 0,0 -226,-68.11 -403.8,-140.66 -26.8,-10.9 -54.3,-22.32 -82.4,-34.13 0,0 -20.7,-7.67 -50.8,-25.16 -73.9,-42.88 -204.2,-144.74 -223.2,-336.96 -2.4,-23.79 -8.5,-64.51 -17.4,-116.18 76.2,-37.75 144.8,-73.52 199.5,-104.82 35.2,-20.06 64.6,-38.32 86.5,-54.12 l 39.4,-218.85 c 22.1,-216.1 15.7,-530.87 22.1,-575.53 9.7,-66.94 -220.6,-1349.73 -215.8,-1385.59 4.8,-35.82 780.4,101.01 1086.6,134.47 95.8,10.49 176.4,20.34 241.9,28.91 143.8,18.79 215.1,31.58 215.1,31.58 0,0 -3.5,25.54 -9.3,69.11" /></g><g
         transform="scale(1.74109)"
         id="g326"><path
           id="path328"
           style="fill:#fa7126;fill-opacity:1;fill-rule:nonzero;stroke:none"
           d="m 15985.1,8208.13 c -43.5,27.71 -99.7,65.26 -294.3,161.74 -362.3,179.67 -809.6,505.32 -894.6,552.38 -130.8,72.32 -543.9,572.58 -543.9,572.58 21.3,75.35 217.1,226.59 217.1,226.59 0,0 626.4,-587.97 763.2,-660.33 117.7,-62.24 699.1,-125.09 859.2,-141.43 26,-2.66 40.9,-4.1 40.9,-4.1 167.3,-226.07 -54.2,-767.06 -147.6,-707.43" /></g><g
         transform="scale(1.85568)"
         id="g330"><path
           id="path332"
           style="fill:#d9d3d3;fill-opacity:1;fill-rule:nonzero;stroke:none"
           d="m 15004.6,6488.6 c 0,0 -155.3,-631.4 -177.1,-824.53 -21.8,-193.14 -94.7,-714.78 -105.6,-835.49 -10.9,-120.71 490.8,-1288.96 543.1,-1499.99 l 457.1,72.69 c 0,0 -482.3,1215.95 -356.5,1486.2 187.1,401.85 211.5,389.72 358.9,720.76 147.5,331.03 484.9,338.88 575.5,953.09 0,0 -1172.7,122.07 -1295.4,-72.73" /></g><g
         transform="scale(1.82883)"
         id="g334"><path
           id="path336"
           style="fill:#eea886;fill-opacity:1;fill-rule:nonzero;stroke:none"
           d="m 16103.9,9590.5 c 0,0 -308,114.01 -450,-118.37 -142.1,-232.39 -128.4,-697.63 26.9,-754.83 155.2,-57.22 388.5,-27.29 467.9,118.12 79.5,145.4 151.3,355.63 147.9,496.13 -3.5,140.48 -111.9,218.37 -192.7,258.95" /></g><g
         transform="scale(1.82552)"
         id="g338"><path
           id="path340"
           style="fill:#eea886;fill-opacity:1;fill-rule:nonzero;stroke:none"
           d="m 15761,8747.42 c 0,0 12.5,-80.16 -8.1,-119.65 -20.6,-39.5 388.1,-40.53 388.1,-40.53 0,0 33.2,214.8 96.1,396.3 62.9,181.47 -476.1,-236.12 -476.1,-236.12" /></g><g
         transform="scale(1.83252)"
         id="g342"><path
           id="path344"
           style="fill:#3a3f47;fill-opacity:1;fill-rule:nonzero;stroke:none"
           d="m 16175.1,8949.22 c 0,0 -28.1,-45.95 -142.8,-28.12 -114.8,17.82 -254.7,169.09 -302.6,185.7 -47.9,16.6 -48.4,44.5 -48.4,44.5 l -29.9,-43.41 -50.9,-3.21 c 0,0 46.4,135.31 -23.6,190.5 -70,55.18 72.6,437.97 440.5,310.52 0,0 282.6,-77.19 272.3,-236.45 -10.3,-159.29 -51.4,-340.72 -114.6,-420.03" /></g><g
         transform="scale(1.77815)"
         id="g346"><path
           id="path348"
           style="fill:#eea886;fill-opacity:1;fill-rule:nonzero;stroke:none"
           d="m 16168.6,9490.79 c 6.7,27.52 77.3,106.22 104.4,21.97 27,-84.23 -40.9,-197.54 -78.8,-187.84 -37.9,9.7 -42.3,96.09 -25.6,165.87" /></g><g
         transform="scale(1.86998)"
         id="g350"><path
           id="path352"
           style="fill:#d9d3d3;fill-opacity:1;fill-rule:nonzero;stroke:none"
           d="m 16197.8,6410.66 c 0,0 -309,-133.21 -1319.5,-47.51 0,0 -134.1,-811.81 -145.5,-966.52 l 1567.2,226.21 c 0,0 -23.2,526.42 -102.2,787.82" /></g><g
         transform="scale(1.84733)"
         id="g354"><path
           id="path356"
           style="fill:#fa7126;fill-opacity:1;fill-rule:nonzero;stroke:none"
           d="m 16145.1,9094.27 c 0,0 -338.8,226.23 -729.6,139.27 0,0 17.2,485.72 464.4,408.06 420.1,-72.98 278.9,-492.35 265.2,-547.33" /></g><g
         transform="scale(1.79034)"
         id="g358"><path
           id="path360"
           style="fill:#3c4145;fill-opacity:1;fill-rule:nonzero;stroke:none"
           d="m 16272.6,3087.62 c -27.6,-52.78 -178.3,-42.51 -483.7,-83.22 -83.5,-11.12 -149.3,-15.42 -200.9,-14.75 l -17.9,182.14 c 89.4,30.84 193.4,62.62 232.8,89.87 69.5,47.82 135.8,147.57 135.8,147.57 181.4,1.62 246.7,36.87 246.7,36.87 0,0 114.6,-305.7 87.2,-358.48" /></g><g
         transform="scale(1.75101)"
         id="g362"><path
           id="path364"
           style="fill:#fa7126;fill-opacity:1;fill-rule:nonzero;stroke:none"
           d="m 16300,9815.03 c 0,0 -133.1,-20.6 -122.7,-68.32 7.1,-31.72 106.7,-8.55 106.7,-8.55 l 16,76.87" /></g><g
         transform="scale(1.81642)"
         id="g366"><path
           id="path368"
           style="fill:#fa7126;fill-opacity:1;fill-rule:nonzero;stroke:none"
           d="m 15839.7,8694.39 c 0,0 252.9,58.3 395.4,10.62 l 21.5,-19.76 c 0,0 43.4,-82.32 -119.7,-89.37 -163,-7.09 -419.4,-18.84 -297.2,98.51" /></g><g
         transform="scale(1.90664)"
         id="g370"><path
           id="path372"
           style="fill:#5c544d;fill-opacity:1;fill-rule:nonzero;stroke:none"
           d="m 16031.7,2687.71 c 0,0 36.1,-140.56 41,-161.75 4.9,-21.19 227.3,37.13 227.3,37.13 l -0.2,171.92 c 0,0 -242.1,-24.17 -268.1,-47.3" /></g><g
         transform="scale(1.91544)"
         id="g374"><path
           id="path376"
           style="fill:#d9d3d3;fill-opacity:1;fill-rule:nonzero;stroke:none"
           d="m 16300,2592.1 -413.7,-47.09 c 0,0 -268.8,1470.68 -332.2,1621.04 -44.1,104.36 -209.2,652.65 -309.7,1018.46 v 0.05 c -17.5,63.7 -32.9,121.86 -45.6,171.19 -19.2,75.55 -31.7,130.42 -33.6,152.66 -10.6,120.28 626.4,848.2 626.4,848.2 0,0 80.7,-329.98 104.5,-660.36 22.2,-305.31 62.4,-640.22 94.4,-959.57 35.5,-355.95 137.2,-931.44 142.5,-1121.89 5.3,-190.45 167,-1022.69 167,-1022.69" /></g><g
         transform="scale(1.91923)"
         id="g378"><path
           id="path380"
           style="fill:#3c4145;fill-opacity:1;fill-rule:nonzero;stroke:none"
           d="m 15962.9,2527.16 c 0,0 -61.8,-93.05 -126.6,-137.71 -64.7,-44.65 -314.7,-102.33 -351.2,-145.26 -26.4,-30.96 -63.1,-148.29 338.1,-94.73 285,38.04 425.6,28.45 451.2,77.63 25.6,49.24 -81.3,334.41 -81.3,334.41 0,0 -60.9,-32.88 -230.2,-34.34" /></g><g
         transform="scale(1.86192)"
         id="g382"><path
           id="path384"
           style="fill:#d9d3d3;fill-opacity:1;fill-rule:nonzero;stroke:none"
           d="m 16245.4,6539.34 c 0,0 -46.6,392.94 4,622.89 50.6,229.96 30.2,348.05 32.4,393.93 2.2,45.89 -107.1,294.47 -125.7,392.58 0,0 -225.8,52.14 -789,0 0,0 -30.4,-395.12 -372.5,-476.59 0,0 15.1,-541.34 7.2,-634.24 -8,-92.89 -70.2,-464.77 -70.2,-464.77 l 1313.8,166.2" /></g><g
         transform="scale(1.84548)"
         id="g386"><path
           id="path388"
           style="fill:#d9d3d3;fill-opacity:1;fill-rule:nonzero;stroke:none"
           d="m 16300,8019.53 c 0,0 0,250.6 -47,465.91 0,0 -73,38.05 -112.9,30.49 0,0 54.9,-279.82 35.4,-552.07 -11.2,-157.43 124.5,55.67 124.5,55.67" /></g><g
         transform="scale(1.7741)"
         id="g390"><path
           id="path392"
           style="fill:#d9d3d3;fill-opacity:1;fill-rule:nonzero;stroke:none"
           d="m 16127.9,8342.22 c 0,0 -9.7,307.17 -224,454.5 0,0 37.2,44.1 112,39.43 0,0 196.8,-144.38 240.4,-483.29 43.7,-338.91 -128.4,-10.64 -128.4,-10.64" /></g><g
         transform="scale(1.92329)"
         id="g394"><path
           id="path396"
           style="fill:#db9c7c;fill-opacity:1;fill-rule:nonzero;stroke:none"
           d="m 16052.8,5702.63 c 0,0 -17.3,148.25 6.5,153.94 23.7,5.7 35.9,-6.48 35.9,-6.48 l 20.8,64.21 c 0,0 38.1,34.79 65.2,-16.41 0,0 32.1,36.14 52.4,-16.38 0,0 31.9,14.47 45.5,-8.22 13.8,-22.67 20.9,-118.51 20.9,-118.51 0,0 -7.7,-20.91 -45.7,-17.14 0,0 -18.4,-30.85 -53.9,-23.31 0,0 -18.7,-22.41 -56.9,-13.88 0,0 -45.6,-46.7 -88,-13.06 0,0 -2.1,9 -2.7,15.24" /></g><g
         transform="scale(1.90659)"
         id="g398"><path
           id="path400"
           style="fill:#eea886;fill-opacity:1;fill-rule:nonzero;stroke:none"
           d="m 16139.3,5997.53 c 0,0 57.8,-85.94 110.2,-119.1 11.8,-7.52 24.7,-12.65 36.2,-4.58 11.5,8.08 14.3,34.83 -8.9,73.31 -23.1,38.51 -35.2,98.75 -35.2,98.75 0,0 -35.5,32.67 -102.3,-48.38" /></g><g
         transform="scale(1.86852)"
         id="g402"><path
           id="path404"
           style="fill:#a84c1a;fill-opacity:1;fill-rule:nonzero;stroke:none"
           d="m 16264.3,7446.53 c -12.4,60.38 -25.1,122.16 -35.6,172.75 0,0.05 0,0.1 0,0.1 0,0 5.2,308.97 -2.1,386.88 0,0 73.4,-247.09 37.7,-559.73" /></g><g
         transform="scale(1.82737)"
         id="g406"><path
           id="path408"
           style="fill:#b3aeae;fill-opacity:1;fill-rule:nonzero;stroke:none"
           d="m 16300,6090.58 c -4.7,-8.71 -309.1,-566.35 -320.9,-656.15 -18.3,66.76 -34.5,127.72 -47.8,179.44 0,0 81.2,171.94 117.5,215.83 36.2,43.88 230.2,237.36 251.2,260.88" /></g><g
         transform="scale(2.47621)"
         id="g410"><path
           id="path412"
           style="fill:#385369;fill-opacity:1;fill-rule:nonzero;stroke:none"
           d="m 16158.6,4583.79 -316.3,138.74 141.5,350.79 316.2,-138.75 -141.4,-350.78" /></g><g
         transform="scale(2.43655)"
         id="g414"><path
           id="path416"
           style="fill:#eea886;fill-opacity:1;fill-rule:nonzero;stroke:none"
           d="m 15947.8,4628.08 c 0,0 113.8,22.25 131.3,25.08 17.5,2.84 62.2,-19 111.5,-48.75 49.3,-29.75 103.1,-92.94 103.7,-103.16 0.6,-10.22 5.7,-20.23 -7.4,-42.68 -13.1,-22.45 -37.1,-33.17 -37.1,-33.17 0,0 -4,-35.5 -33.3,-47.4 0,0 -5.8,-31.81 -41.2,-39.6 0,0 -3.4,-34.68 -29.5,-38.13 0,0 -44.9,21.83 -63.7,24.91 -18.9,3.08 -109.2,55.12 -188.5,118.94 0,0 -90.2,66.82 54.2,183.96" /></g><g
         transform="scale(2.40928)"
         id="g418"><path
           id="path420"
           style="fill:#cf8c6c;fill-opacity:1;fill-rule:nonzero;stroke:none"
           d="m 16262,4577.17 c 0,0 -49,-33.98 -67.4,-36.26 -18.4,-2.33 34.1,-126.97 34.1,-126.97 0,0 71.3,100.03 33.3,163.23" /></g><g
         transform="scale(2.39183)"
         id="g422"><path
           id="path424"
           style="fill:#dbdff0;fill-opacity:1;fill-rule:nonzero;stroke:none"
           d="m 15086.3,6114.65 c 0,0 -132.7,307.15 -340.8,110.44 -204,-192.89 5.2,-360.24 350.7,-978.34 0,0 117.5,-181.66 233.3,-260.34 185.1,-125.72 836.6,-449.93 893,-493.37 l 77.5,239.57 c 0,0 -315.6,181.91 -455.2,299.44 -139.6,117.53 -392.4,278.1 -392.4,278.1 l -366.1,804.5" /></g><g
         transform="scale(2.22953)"
         id="g426"><path
           id="path428"
           style="fill:#eea886;fill-opacity:1;fill-rule:nonzero;stroke:none"
           d="m 16245.5,7033.62 c 0,0 0.4,-17.04 1.6,-43.37 0.8,-19.4 1.9,-43.78 3.6,-70.15 4.4,-71.44 12.3,-157.11 25.2,-195.06 24.1,-70.93 -320.8,191.2 -320.8,191.2 0,0 -8,243 -58.2,509.8 -50.3,266.77 348.6,-392.42 348.6,-392.42" /></g><g
         transform="scale(2.05175)"
         id="g430"><path
           id="path432"
           style="fill:#202338;fill-opacity:1;fill-rule:nonzero;stroke:none"
           d="m 15851.3,2088.37 c 0,0 122.8,-85.59 174.2,-120.29 51.4,-34.66 99.5,-11.26 83.9,-52.2 -15.5,-40.94 -38.1,-205.48 -13.8,-268.26 24.5,-62.78 204.4,-455.47 131.6,-517.27 -72.8,-61.8 -208,84.91 -372.2,310.91 -164.1,225.76 -225.9,190.57 -289.3,373.83 -19.7,57.12 285.6,273.28 285.6,273.28" /></g><g
         transform="scale(2.45399)"
         id="g434"><path
           id="path436"
           style="fill:#202338;fill-opacity:1;fill-rule:nonzero;stroke:none"
           d="m 15484.5,1132.85 c 0,0 122,38.34 172.1,54.93 50.2,16.62 61.6,62.71 79.1,29.54 17.6,-33.17 109.8,-138.75 163,-156.19 53.3,-17.44 401.3,-107.622 400.8,-191.771 -0.6,-84.15 -167.7,-97.473 -401.2,-87.531 -233.2,9.942 -244.6,-52.037 -395.7,4.279 -47.1,17.562 -18.1,346.743 -18.1,346.743" /></g><g
         transform="scale(2.36513)"
         id="g438"><path
           id="path440"
           style="fill:#eea886;fill-opacity:1;fill-rule:nonzero;stroke:none"
           d="m 16047.2,1257.09 22.8,-97.58 230,75.98 -20.5,94.79 -232.3,-73.19" /></g><g
         transform="scale(2.03242)"
         id="g442"><path
           id="path444"
           style="fill:#eea886;fill-opacity:1;fill-rule:nonzero;stroke:none"
           d="m 16071.4,2199.01 -69.3,-90.78 229.4,-165.27 68.5,86.69 -228.6,169.36" /></g><g
         transform="scale(2.26895)"
         id="g446"><path
           id="path448"
           style="fill:#385369;fill-opacity:1;fill-rule:nonzero;stroke:none"
           d="m 16300,4209.35 c 0,0 -12.1,-47.96 -35.8,-127.2 -13.4,-44.16 -30.3,-98.06 -50.8,-158.84 -12.8,-38.25 -27.1,-79.15 -42.8,-122.08 -15.7,-42.89 -32.8,-87.8 -51.2,-133.94 h -0.1 c 0,-0.04 -10.9,-28.56 -29.9,-76.07 -15.4,-38.43 -35.9,-89.38 -60.1,-147.65 -2.4,-5.81 -4.8,-11.68 -7.4,-17.58 -18,-43.37 -37.9,-90.31 -59,-138.92 -110.5,-254.87 -253.9,-555.59 -341.3,-622.01 -310.5,-235.96 -1014,-1000.46 -1014,-1000.46 l -347.3,243.2 c 0,0 551.3,593.97 714.6,788.73 201,239.76 355.7,304.68 379.8,552.81 16,164.62 0.3,709.76 0,718.75 -26.6,269.68 -47.6,622.22 7.6,745.9 46.3,103.79 937.7,-504.64 937.7,-504.64" /></g><g
         transform="scale(2.37637)"
         id="g450"><path
           id="path452"
           style="fill:#385369;fill-opacity:1;fill-rule:nonzero;stroke:none"
           d="m 16063.2,2834.49 c 20,142.52 -92.5,516.83 -179.5,752.74 v 0 c -135.7,376.54 -335.7,853.36 -335.7,853.36 0,0 -855.3,138.95 -863.3,29.88 -15.2,-205.74 403.5,-890.27 461.3,-983.81 l -1.5,-0.68 c 0,0 222.3,-273.02 318,-397.2 152.4,-197.95 101.7,-234.68 148.4,-506.23 41.8,-243.19 315.4,-1481.88 315.4,-1481.88 l 373.7,144.25 c 0,0 -263.6,1397.34 -236.8,1589.57" /></g><g
         transform="scale(2.27685)"
         id="g454"><path
           id="path456"
           style="fill:#385369;fill-opacity:1;fill-rule:nonzero;stroke:none"
           d="m 16184.5,5318.17 c -19.7,-233.58 -12.6,-353.14 59,-721.51 0,0 -158,-118.58 -966.1,-344.33 -141.7,1108.23 14,2008.73 14,2008.73 57.2,287.36 145.9,350.55 322.1,521.69 0,0 37.1,2.39 315.9,-163.75 19.5,-11.62 120.9,-177.95 192.6,-367.43 178,-470.21 84.1,-674.36 62.5,-933.4" /></g><g
         transform="scale(2.25934)"
         id="g458"><path
           id="path460"
           style="fill:#dbdff0;fill-opacity:1;fill-rule:nonzero;stroke:none"
           d="m 15921.7,5514.26 c 0,0 0,0 0,-0.04 -31.2,-9.51 -60.3,-13.76 -84.4,-13.79 -6.9,0 -13.6,0.4 -20.4,1.22 -302.6,37.44 -448.8,916.57 -226.4,1082.95 0,0 130.7,87.88 247.9,50.81 117.2,-37.05 250.8,-124.66 331.6,-415.75 130,-468.32 -87.2,-656.47 -248.3,-705.4" /></g><g
         transform="scale(2.22279)"
         id="g462"><path
           id="path464"
           style="fill:#a77860;fill-opacity:1;fill-rule:nonzero;stroke:none"
           d="m 16296.4,7011.45 c 0.8,-19.46 1.9,-43.91 3.6,-70.36 -111.1,64.16 -204.5,150.55 -232.8,177.79 52.4,-44.26 229.2,-107.43 229.2,-107.43" /></g><g
         transform="scale(2.27037)"
         id="g466"><path
           id="path468"
           style="fill:#eea886;fill-opacity:1;fill-rule:nonzero;stroke:none"
           d="m 16214,7506.88 c 0,0 77.9,-166.64 35.1,-190.2 -35.3,-19.47 33.3,-182.67 42.1,-209.24 8.8,-26.56 -64.3,-42.46 -80.3,-58.62 -16,-16.16 -69.7,-221.24 -129.6,-224.93 -59.8,-3.69 -324.5,105.19 -394.5,187.6 -69.9,82.43 -115.8,443.12 -61.1,592.1 54.8,148.96 450.7,194.46 588.3,-96.71" /></g><g
         transform="scale(2.2642)"
         id="g470"><path
           id="path472"
           style="fill:#754836;fill-opacity:1;fill-rule:nonzero;stroke:none"
           d="m 16274.6,7493.02 c 0,0 25.4,76.52 -126.2,214.19 -151.6,137.68 -382.8,14.69 -415.7,7.32 -32.9,-7.37 -191.5,-151.67 -138.2,-355.2 88.9,-340.1 99.8,-330.68 99.8,-330.68 0,0 21.7,202.17 80.9,213.92 64.3,12.74 170.2,23.22 170.2,23.22 0,0 -49.3,155.5 38,173.48 87.2,17.98 205.1,91.34 291.2,53.75" /></g><g
         transform="scale(2.2125)"
         id="g474"><path
           id="path476"
           style="fill:#eea886;fill-opacity:1;fill-rule:nonzero;stroke:none"
           d="m 16279.4,7425.87 c -3.7,18.51 -20.7,101.46 -82.8,91.78 -62.1,-9.69 -45.3,-111.58 0.2,-172.59 45.4,-61 103.2,-22.58 82.6,80.81" /></g><g
         transform="scale(2.2635)"
         id="g478"><path
           id="path480"
           style="fill:#fab546;fill-opacity:1;fill-rule:nonzero;stroke:none"
           d="m 16300,7494.44 c 0,0 -120,502.92 -527.5,336.93 -474,-193.11 -131.3,-627.24 -131.3,-627.24 0,0 134.9,201.84 658.8,290.31" /></g><g
         transform="scale(2.29486)"
         id="g482"><path
           id="path484"
           style="fill:#fab546;fill-opacity:1;fill-rule:nonzero;stroke:none"
           d="m 16065.9,7435.34 c 0,0 67,-8.12 107.9,-22.62 126.2,-44.71 -289.6,-60.39 -326.2,-72.58 -341.4,-113.44 218.3,95.2 218.3,95.2" /></g><g
         transform="scale(2.23127)"
         id="g486"><path
           id="path488"
           style="fill:#2c4152;fill-opacity:1;fill-rule:nonzero;stroke:none"
           d="m 16300,3501.73 c -2.5,-5.92 -4.9,-11.88 -7.5,-17.88 -18.3,-44.1 -38.5,-91.84 -60,-141.27 -206.2,382.56 -351.2,799.05 -352.1,804.34 124.5,-246.23 419.6,-645.19 419.6,-645.19" /></g><g
         transform="scale(2.22508)"
         id="g490"><path
           id="path492"
           style="fill:#dbdff0;fill-opacity:1;fill-rule:nonzero;stroke:none"
           d="m 15976.8,6940.55 1.6,40.63 321.1,-154 0.5,-54.19 -323.2,167.56" /></g><g
         transform="scale(2.29327)"
         id="g494"><path
           id="path496"
           style="fill:#d1d1d1;fill-opacity:1;fill-rule:nonzero;stroke:none"
           d="m 15969.9,4082.42 c -166.2,0 -301.4,-164.13 -301.4,-365.89 0,-201.77 135.2,-365.9 301.4,-365.9 166.2,0 301.5,164.13 301.5,365.9 0,201.76 -135.3,365.89 -301.5,365.89 z m 0,-761.66 c -182,0 -330,177.56 -330,395.77 0,218.2 148,395.72 330,395.72 182,0 330.1,-177.52 330.1,-395.72 0,-218.21 -148.1,-395.77 -330.1,-395.77" /></g><g
         transform="scale(2.29506)"
         id="g498"><path
           id="path500"
           style="fill:#a0cc83;fill-opacity:1;fill-rule:nonzero;stroke:none"
           d="m 16300,2714.92 h -685 v 947.3 h 685 v -947.3" /></g><g
         transform="scale(2.29506)"
         id="g502"><path
           id="path504"
           style="fill:#ebebeb;fill-opacity:1;fill-rule:nonzero;stroke:none"
           d="m 16300,2714.92 h -685 v 681.73 h 685 v -681.73" /></g><g
         transform="scale(2.29506)"
         id="g506"><path
           id="path508"
           style="fill:#d1d1d1;fill-opacity:1;fill-rule:nonzero;stroke:none"
           d="m 16300,2714.92 h -685 v 36.91 h 685 v -36.91" /></g><g
         transform="scale(2.27269)"
         id="g510"><path
           id="path512"
           style="fill:#eea886;fill-opacity:1;fill-rule:nonzero;stroke:none"
           d="m 16035.7,3908.58 c 0,0 -26.4,18.08 -33.7,31.06 0,0 -11.3,24.51 -20.5,41.5 -2.9,5.36 -5.6,10.03 -7.7,12.84 -8.7,11.84 -31.7,35.47 -43.8,69.13 -12.1,33.62 -23.1,190.61 -23.1,190.61 l 92.1,28.95 81.9,38.28 c 0,0 180.8,-142.51 196.1,-172.7 1.5,-2.95 2.8,-5.9 3.9,-8.8 10.2,-26.66 5.4,-50.34 9,-64.86 1.3,-5.32 10.1,-59.22 -2,-71.28 -16.6,-16.72 -35.7,-22.13 -52.6,-19.75 0,0 -34.3,-31.42 -67.1,-34.5 0,0 -30.6,-29.88 -72.6,-23.19 0,0 -34.8,-27.19 -59.9,-17.29" /></g><g
         transform="scale(2.24553)"
         id="g514"><path
           id="path516"
           style="fill:#dbdff0;fill-opacity:1;fill-rule:nonzero;stroke:none"
           d="m 16046.1,6360.15 c 0,0 63.4,352.71 -233.3,312.98 -290.9,-38.96 -205.7,-318.14 -264.7,-1077.7 0,0 -3.3,-233.43 52,-375.78 88.3,-227.42 468.4,-924.58 492.3,-998.41 l 207.6,160.18 c 0,0 -169.6,359.38 -223,550.81 -53.4,191.43 -180.5,492.27 -180.5,492.27 l 149.6,935.65" /></g><g
         transform="scale(2.20691)"
         id="g518"><path
           id="path520"
           style="fill:#b3b6c4;fill-opacity:1;fill-rule:nonzero;stroke:none"
           d="m 16300,5645.26 c 0,0 0,0 0,-0.04 -32,-9.73 -61.8,-14.09 -86.4,-14.12 -7.1,0 -14,0.41 -20.9,1.25 l 91.8,574.3 15.5,-561.39" /></g><g
         transform="scale(2.459)"
         id="g522"><path
           id="path524"
           style="fill:#d88a51;fill-opacity:1;fill-rule:nonzero;stroke:none"
           d="m 16255.3,4528.18 -350.7,153.87 44.6,110.92 350.8,-153.88 -44.7,-110.91" /></g><g
         transform="scale(2.4377)"
         id="g526"><path
           id="path528"
           style="fill:#d88a51;fill-opacity:1;fill-rule:nonzero;stroke:none"
           d="m 15994.6,4221.81 211.8,525.38 93.6,-41.05 -211.8,-525.35 -93.6,41.02" /></g><g
         transform="scale(2.43791)"
         id="g530"><path
           id="path532"
           style="fill:#db9c7c;fill-opacity:1;fill-rule:nonzero;stroke:none"
           d="m 16272.5,4507.05 c 0,0 -126.6,72.16 -140.3,52.33 -13.6,-19.82 -7.1,-35.75 -7.1,-35.75 l -65,5.05 c 0,0 -44.9,-22 -8.8,-66.55 0,0 -43.9,-15.99 -4.2,-54.67 0,0 -24.4,-24.08 -9,-45.37 15.3,-21.29 98.6,-64.24 98.6,-64.24 0,0 21.5,-0.82 31.8,35.81 0,0 34.3,5.38 40.3,41.1 0,0 26.8,8.82 33,47.46 0,0 58.2,24.49 43.3,76.5 0,0 -7.3,5.34 -12.6,8.33" /></g><g
         transform="scale(2.41445)"
         id="g534"><path
           id="path536"
           style="fill:#eea886;fill-opacity:1;fill-rule:nonzero;stroke:none"
           d="m 16230.5,4693.92 c 0,0 56.2,-86.22 67.1,-147.37 2.4,-13.79 2.4,-27.67 -9,-35.25 -11.4,-7.62 -36.4,-0.04 -62.5,35.99 -26.2,36.06 -75.8,70.17 -75.8,70.17 0,0 -16.5,45.27 80.2,76.46" /></g><g
         transform="scale(2.47621)"
         id="g538"><path
           id="path540"
           style="fill:#a0cc83;fill-opacity:1;fill-rule:nonzero;stroke:none"
           d="m 15909.1,4888.26 c 0,0 114.7,53.4 213,20.3 98.2,-33.11 144.7,-56.38 144.7,-56.38 l 33.2,82.39 -316.2,138.75 -74.7,-185.06" /></g><path
         id="path542"
         style="fill:#163342;fill-opacity:1;fill-rule:nonzero;stroke:none"
         d="m 2718.56,2844.1 c 0,0 -85.2,-209.4 -156.99,-292.4 -71.84,-82.9 -346.85,-231.2 -348.33,-477.6 -1.59,-267.2 463.58,-193.1 645.52,-183.3 181.96,9.8 195.72,152.5 272.31,303.8 76.62,151.3 153.81,125.7 168.18,247.7 14.36,122 -58.63,395.2 -58.63,395.2 l -522.06,6.6" /><path
         id="path544"
         style="fill:#eea886;fill-opacity:1;fill-rule:nonzero;stroke:none"
         d="m 8130.57,14067 c 0,0 -33.83,302.8 -43.39,345.5 -9.55,42.8 33.63,157 94.43,283.8 60.8,126.8 198.6,270.3 222.27,273.5 23.66,3.1 46.16,17.6 100.55,-11.1 54.42,-28.8 83.27,-95.9 83.27,-95.9 0,0 83.34,-4.6 115.92,-75 0,0 70.81,-5.6 95.03,-91.7 0,0 85.48,3.9 97.84,-60.1 0,0 -43.11,-114.6 -47.05,-161.7 -3.92,-47.1 -228.67,-396.5 -363.63,-603.2 0,0 -58.34,-141.6 -355.24,195.9" /><path
         id="path546"
         style="fill:#8a664d;fill-opacity:1;fill-rule:nonzero;stroke:none"
         d="m 9223.29,14548.4 -55.02,-243 -5954.95,1400.6 55.03,243 5954.94,-1400.6" /><path
         id="path548"
         style="fill:#4a3f3f;fill-opacity:1;fill-rule:nonzero;stroke:none"
         d="m 10064.7,14684.1 c -344.82,38 -523.65,-260.5 -561.33,-332 1.62,-37.4 9.95,-134.9 52.36,-241 60.87,-152.1 164.77,-255.6 309.47,-308.5 z m -702.22,-282.9 c 87.03,189.4 367.98,520.3 808.22,416.7 l 71.9,-16.9 -267.82,-1182.9 -71.85,16.9 c -440.26,103.5 -550.6,526.4 -547.42,735.5 l 0.26,16.1 6.71,14.6" /><g
         transform="scale(1.03018)"
         id="g550"><path
           id="path552"
           style="fill:#c9c3c3;fill-opacity:1;fill-rule:nonzero;stroke:none"
           d="m 3706.66,15232 -174.7,-771.6 c -1260.24,296.4 -1742.55,1222.5 -1742.55,1222.5 0,0 831.64,617.1 2091.92,320.7 L 3706.66,15232" /></g><path
         id="path554"
         style="fill:#4a3f3f;fill-opacity:1;fill-rule:nonzero;stroke:none"
         d="m 9530.6,14476.1 -54.39,-244 -502.53,119.1 54.78,243 502.14,-118.1" /><path
         id="path556"
         style="fill:#cf8c6c;fill-opacity:1;fill-rule:nonzero;stroke:none"
         d="m 8343.46,14449.6 c 0,0 86.42,-114.2 94.76,-158.8 8.37,-44.6 325.64,90.4 325.64,90.4 0,0 -281.42,171.7 -420.4,68.4" /><path
         id="path558"
         style="fill:#385369;fill-opacity:1;fill-rule:nonzero;stroke:none"
         d="m 8491.18,13790.8 c 0,0 -918.43,-1444.8 -1227.35,-1370 -142.82,34.5 -568.16,360.1 -748.4,594.4 -196.36,254.9 -425.93,614 -568.8,866.4 0,0 -605,899.5 -88.59,1248.2 0,0 311,-78.9 485.5,-266.5 174.66,-187.6 262.5,-473.4 308.7,-573.9 46.18,-100.3 579.18,-994.2 612.26,-1014.9 33.1,-20.8 277.31,189.8 425.01,360.7 217.52,251.7 417.65,540.2 417.65,540.2 l 384.02,-384.6" /><path
         id="path560"
         style="fill:#db9c7c;fill-opacity:1;fill-rule:nonzero;stroke:none"
         d="m 8386.69,14937.1 c 0,0 -146.4,-325.1 -97.93,-355.6 48.46,-30.5 84.41,-11.7 84.41,-11.7 l -0.71,-161.7 c 0,0 58.84,-107.3 156.31,-10.7 0,0 44.77,-106 127.99,-1.2 0,0 60.15,-56.6 107.1,-15 46.94,41.6 132.63,254.8 132.63,254.8 0,0 -1.72,53.3 -88.65,72.7 0,0 -18.4,83.9 -102.53,92.8 0,0 -25.02,64.8 -115.97,73.7 0,0 -66.91,140.1 -185.46,94.6 0,0 -11.11,-18.9 -17.19,-32.7" /><path
         id="path562"
         style="fill:#eea886;fill-opacity:1;fill-rule:nonzero;stroke:none"
         d="m 8090.7,14423.3 c 0,0 189.23,151.8 328.27,188.5 31.44,8.3 63.39,10.5 82.8,-16.2 19.42,-26.6 6.22,-89.1 -72.44,-159.1 -78.69,-70.1 -148.93,-197.3 -148.93,-197.3 0,0 -101.54,-47.9 -189.7,184.1" /><path
         id="path564"
         style="fill:#385369;fill-opacity:1;fill-rule:nonzero;stroke:none"
         d="m 3009.43,11124.9 c 0,0 -1339.15,1423.2 -1370.88,1745.2 -14.68,148.9 176.4,616.2 334.67,866.5 52.09,82.5 108.12,165.2 164.31,244.9 0.13,0.2 0.28,0.3 0.28,0.3 224.48,318 452.53,586.1 452.53,586.1 0,0 574.02,842.1 1066.29,458.7 0,0 12.58,-287.5 -104.28,-517 -116.78,-229.6 -275.06,-410.5 -353.12,-487.9 -77.9,-77.3 -759.98,-956.7 -768.4,-995.4 -8.42,-38.7 207.89,-476 336.98,-661.8 184.15,-265.2 556.62,-899.6 556.62,-899.6 l -315,-340" /><path
         id="path566"
         style="fill:#163342;fill-opacity:1;fill-rule:nonzero;stroke:none"
         d="m 5955.44,2829.8 c 0,0 86.65,-206.4 158.68,-287.8 72.04,-81.5 346.07,-225.4 350.16,-469.5 4.44,-264.7 -457.27,-196.3 -637.64,-188.7 -180.35,7.7 -195.52,149 -273.02,298 -77.5,149.1 -153.73,122.8 -169.25,243.6 -15.53,120.7 56.39,392.4 56.39,392.4 l 514.68,12" /><path
         id="path568"
         style="fill:#163342;fill-opacity:1;fill-rule:nonzero;stroke:none"
         d="m 5987.97,2924.5 -13.1,-142.4 c 0,0 -252.95,-100.1 -534.07,-6 l -0.19,179.1 547.36,-30.7" /><path
         id="path570"
         style="fill:#163342;fill-opacity:1;fill-rule:nonzero;stroke:none"
         d="m 3248.52,2924.5 -13.09,-142.4 c 0,0 -235.74,-67.4 -516.87,26.7 l -0.24,217.9 530.2,-102.2" /><path
         id="path572"
         style="fill:#385369;fill-opacity:1;fill-rule:nonzero;stroke:none"
         d="m 2956.11,6135.3 c -3.55,326.3 461.98,3152 469.56,3261 6.71,96.1 98.74,709.7 146.28,1176.2 20.26,198.9 45.24,435.6 45.24,435.6 0,0 585.76,124.5 1216.91,150.7 359.99,15 839.61,2.6 1166.74,-146.5 12.55,-82.9 61.93,-434 67.87,-475.1 120.45,-857.4 70,-1987.9 92.27,-2717.5 25.27,-831.2 -0.64,-1606.5 -5.72,-1841.7 -2.02,-93 -81.71,-3040.8 -81.71,-3040.8 0,0 -499.73,-141 -736.07,-2.2 l -2.8,48.8 -91.95,1573.5 -4.83,83.5 c -40.22,703.9 -77.66,1384.4 -78.94,1503.9 -4.51,426.9 -292.17,2886.7 -385.96,2896.6 -93.54,9.8 -642.93,-2440.1 -750.48,-3086.9 0,0 -356.67,-2359.3 -596.85,-3080.5 -695.61,-184.3 -801.13,81.3 -801.13,81.3 0,0 334.99,2853.7 331.57,3180.1" /><path
         id="path574"
         style="fill:#385369;fill-opacity:1;fill-rule:nonzero;stroke:none"
         d="m 2961.21,14866.8 406.6,-1487 c 13.97,-48.1 30.56,-107.5 48.25,-176.5 l 0.67,-2.6 c 0.2,-0.6 0.4,-1.2 0.53,-1.8 67.84,-265 151.8,-669.1 176.78,-1118 16.98,-306 1.53,-1279.5 1.53,-1279.5 0,0 564.07,-211 1484.78,-151.8 0,0 1001.31,-256 920.54,362.8 -213.69,1638.2 -4.7,2313.6 23.28,2478 0,0 111.99,789.4 208.2,1456 -278.66,105.8 -1446.64,520 -1446.64,520 l -645.68,-7.2 c 0,0 -908.14,-275 -1178.84,-592.4" /><path
         id="path576"
         style="fill:#385369;fill-opacity:1;fill-rule:nonzero;stroke:none"
         d="m 3448.14,13069.8 c 0,0 383.73,182.8 516.47,800.5 l 1354.11,15 c 0,0 405.19,-820.9 623.84,-864.7 0,0 -42.65,-901.3 -15.35,-1249.5 27.32,-348.1 109.29,-1006.6 109.29,-1006.6 0,0 -77.29,-601.1 -2464.51,-192.1 0,0 25.81,1446.6 21.98,1508.4 -3.87,61.8 -135.89,952.7 -145.83,989" /><path
         id="path578"
         style="fill:#385369;fill-opacity:1;fill-rule:nonzero;stroke:none"
         d="m 3967.24,13870.3 c 0,0 -159.12,838.3 -507.41,1326.6 0,0 33.45,40.7 123.52,55.9 0,0 377.94,-549.4 528.72,-1380.9 150.77,-831.5 -144.83,-1.6 -144.83,-1.6" /><path
         id="path580"
         style="fill:#385369;fill-opacity:1;fill-rule:nonzero;stroke:none"
         d="m 5305.06,13885.2 c 0,0 92.08,757.1 429.79,1253 0,0 -57.16,38.2 -147.46,51.4 0,0 -294.17,-471.4 -427.15,-1306 -132.94,-834.7 144.82,1.6 144.82,1.6" /><g
         transform="scale(1.0853)"
         id="g582"><path
           id="path584"
           style="fill:#eea987;fill-opacity:1;fill-rule:nonzero;stroke:none"
           d="m 4063.61,16214.6 c 0,0 -554.59,-95.4 -460.54,-980.4 94.07,-885.1 583.61,-807 616.39,-805.7 32.73,1.2 492.37,-10.7 516.61,1071.4 0,0 7.09,800.1 -672.46,714.7" /></g><path
         id="path586"
         style="fill:#eea987;fill-opacity:1;fill-rule:nonzero;stroke:none"
         d="m 4146.47,15937.6 c 0,0 20.8,-395.3 -15.84,-481.3 -36.64,-86.1 497.55,-358.8 820.65,-48.7 0,0 -79.59,432.6 -59.31,585.2 20.32,152.6 -745.5,-55.2 -745.5,-55.2" /><g
         transform="scale(1.03536)"
         id="g588"><path
           id="path590"
           style="fill:#eea987;fill-opacity:1;fill-rule:nonzero;stroke:none"
           d="m 3765.03,16231.3 c 0,0 -64.47,68.7 -87.14,-1.8 -22.62,-70.6 103.06,-383.3 95.2,-397.5 0,0 11.97,-27.1 27.1,-11.9 15.16,15.1 -35.16,411.2 -35.16,411.2" /></g><g
         transform="scale(1.03711)"
         id="g592"><path
           id="path594"
           style="fill:#eea987;fill-opacity:1;fill-rule:nonzero;stroke:none"
           d="m 4949.46,16228.8 c 0,0 61.61,71.2 87.01,1.8 25.44,-69.4 -67.38,-381.2 -78.96,-400.4 0,0 -19.98,-32 -35.68,-17.5 -15.73,14.5 27.63,416.1 27.63,416.1" /></g><g
         transform="scale(1.09055)"
         id="g596"><path
           id="path598"
           style="fill:#385369;fill-opacity:1;fill-rule:nonzero;stroke:none"
           d="m 3539.22,15484.7 c 19.03,-120.6 36.97,-210.1 36.97,-210.1 l 80.35,-107 c 0,0 -4.75,236.5 7.51,273.6 4.64,14.1 10.1,39 15.74,66 9.21,44.6 18.65,94.9 25.14,111.6 10.31,26.8 473.03,164.6 885.16,-28.8 0,0 -3.51,-36.4 -3.26,-77 0.14,-47.2 5.24,-100.1 26.5,-108 39.49,-14.8 22.99,-276.7 22.99,-276.7 l 64.25,75.5 c 0,0 18.59,136.9 36.85,294.2 0,0 0.08,0.4 0.18,1.1 4.14,36.7 8.35,74.4 12.38,111.8 9.22,158.3 -6.16,445.5 -208.26,614.3 -136.36,59.5 -357.8,74.8 -720.82,-38.5 0,0 -45.82,9.4 -102.91,6.8 -226.05,-253.6 -178.77,-708.8 -178.77,-708.8" /></g><path
         id="path600"
         style="fill:#c78d71;fill-opacity:1;fill-rule:nonzero;stroke:none"
         d="m 4850.66,15787.6 c 0,0 -96.05,-136 -319.27,-130.9 -223.16,5.2 -320.06,123.8 -320.06,123.8 0,0 105.67,-225.3 321.14,-222.9 215.47,2.4 318.19,230 318.19,230" /><g
         transform="scale(1.09445)"
         id="g602"><path
           id="path604"
           style="fill:#fa7126;fill-opacity:1;fill-rule:nonzero;stroke:none"
           d="m 3526.6,15429.4 c 0,0 47.94,11 140.06,22.5 165.76,20.6 474.58,42.9 903.81,5.7 48.5,-4.1 98.53,-9.1 150.05,-14.9 0,0 0.08,0.4 0.18,1.1 1.39,7.4 8.76,49.5 12.34,111.5 9.18,157.6 25.15,446.6 -176.25,614.8 -85.65,71.8 -236.03,129.9 -401.87,129.3 -280.79,-1 -396.31,-73.1 -490.64,-179.1 -225.24,-252.7 -137.68,-690.9 -137.68,-690.9" /></g><g
         transform="scale(1.0419)"
         id="g606"><path
           id="path608"
           style="fill:#d15f20;fill-opacity:1;fill-rule:nonzero;stroke:none"
           d="m 3704.48,16207.7 c 0,0 228.34,-96.4 630.83,-89.5 402.5,6.9 623.32,103.4 623.32,103.4 0,0 -232.35,78.4 -638.49,73.9 -406.13,-4.5 -615.66,-87.8 -615.66,-87.8" /></g><path
         id="path610"
         style="fill:#fa7126;fill-opacity:1;fill-rule:nonzero;stroke:none"
         d="m 2960.22,14958 c 339.9,-100.4 354.7,-1411 354.7,-1411 0,0 94.55,-325.1 134.7,-617.2 21.47,-156.2 44.11,-819 60.38,-1401.1 l 1.72,-63 1.4,-50.1 c 12.4,-456.8 20.6,-837 20.6,-837 0,0 328.44,-215.2 1225.04,-198.7 0,0 936.3,65.9 1334.36,223.7 0,0 -43.95,389.5 -84.56,778.6 -5.95,56.6 -11.78,113.1 -17.42,168.5 -21.27,209.2 -39.5,401.1 -46.87,511.1 -22.64,339.1 79.9,1428.6 79.9,1428.6 -141.22,1218 136.11,1514 136.11,1514 -274.69,164.6 -1155.81,386.8 -1155.81,386.8 -197.54,-875.2 -450.85,-1048.9 -450.85,-1048.9 -366.21,371 -546.19,1073.6 -546.19,1073.6 C 3387.84,15292.1 2960.22,14958 2960.22,14958" /><path
         id="path612"
         style="fill:#d9c9bd;fill-opacity:1;fill-rule:nonzero;stroke:none"
         d="m 6043.01,11058.5 c 0,0 -1375.29,-287.2 -2519.83,-28 l -4.28,168.4 c 0,0 1110.19,-246.3 2506.03,27.9 l 18.08,-168.3" /><path
         id="path614"
         style="fill:#d9c9bd;fill-opacity:1;fill-rule:nonzero;stroke:none"
         d="m 3510,11528.7 1.72,-63 1.4,-50.1 1.55,-55.4 c 1043.95,-236.3 2284.08,-18.2 2493.89,22 -5.95,56.6 -11.78,113.1 -17.42,168.5 -1381.73,-264.7 -2481.14,-22 -2481.14,-22" /><path
         id="path616"
         style="fill:#eea886;fill-opacity:1;fill-rule:nonzero;stroke:none"
         d="m 3235.39,11462.8 c 0,0 42.74,-47.4 93.31,-52.3 87.36,-8.3 198.42,81.9 278.92,-19.1 80.49,-101 -156.83,-469.8 -231.32,-508.2 -74.42,-38.3 -222.01,60.1 -365,293.5 -143,233.5 224.09,286.1 224.09,286.1" /><path
         id="path618"
         style="fill:#eea886;fill-opacity:1;fill-rule:nonzero;stroke:none"
         d="m 3575.78,11421.1 c 0,0 168.92,-82.9 345.61,-200 155,-102.8 319.83,-248 292.33,-291 -37.6,-58.7 -154.14,72.6 -314.57,163.3 -147.73,83.5 -132.53,40.1 -132.53,40.1 0,0 -3.68,12.6 139.68,-112.3 154.13,-134.4 317.91,-299.1 284.59,-338 -20.91,-24.4 -21.19,-29.5 -84.93,9.3 31.89,-30.8 28.19,-44.8 16.88,-60.6 -58.29,-81.9 -314.83,76.9 -416.68,140 77.94,-49 129.94,-94 64.25,-120.4 -75.15,-30.3 -427.83,212 -562.36,285.6 -146.75,80.3 367.73,484 367.73,484" /><path
         id="path620"
         style="fill:#385369;fill-opacity:1;fill-rule:nonzero;stroke:none"
         d="m 3324.43,11464.9 c 0,0 -47.05,-192 -315,-340 0,0 -735.65,814.2 -819.54,915.9 l 644.25,224.9 c 0,0 340.23,-530.1 490.29,-800.8" /></g></g></svg>